<svg width="65" height="64" viewBox="0 0 65 64" fill="none" xmlns="http://www.w3.org/2000/svg">
<rect x="0.5" width="64" height="64" rx="10" fill="#202020"/>
<path d="M21.7 26.24V36.74H19.12V28.505H15.64V32.3C15.64 33.28 15.495 34.105 15.205 34.775C14.925 35.435 14.48 35.93 13.87 36.26C13.26 36.58 12.47 36.74 11.5 36.74V34.595C11.75 34.595 11.97 34.545 12.16 34.445C12.36 34.345 12.525 34.205 12.655 34.025C12.795 33.835 12.9 33.605 12.97 33.335C13.04 33.065 13.075 32.77 13.075 32.45V26.24H21.7Z" fill="white"/>
<path d="M26.538 31.49C26.538 32.11 26.658 32.66 26.898 33.14C27.148 33.61 27.493 33.98 27.933 34.25C28.383 34.52 28.908 34.655 29.508 34.655C30.098 34.655 30.613 34.52 31.053 34.25C31.503 33.98 31.848 33.61 32.088 33.14C32.338 32.66 32.463 32.11 32.463 31.49C32.463 30.87 32.343 30.325 32.103 29.855C31.863 29.375 31.523 29 31.083 28.73C30.643 28.46 30.118 28.325 29.508 28.325C28.908 28.325 28.383 28.46 27.933 28.73C27.493 29 27.148 29.375 26.898 29.855C26.658 30.325 26.538 30.87 26.538 31.49ZM23.853 31.49C23.853 30.68 23.993 29.94 24.273 29.27C24.563 28.6 24.963 28.02 25.473 27.53C25.983 27.04 26.583 26.665 27.273 26.405C27.963 26.135 28.708 26 29.508 26C30.318 26 31.063 26.135 31.743 26.405C32.433 26.665 33.033 27.04 33.543 27.53C34.053 28.02 34.448 28.6 34.728 29.27C35.008 29.94 35.148 30.68 35.148 31.49C35.148 32.3 35.008 33.045 34.728 33.725C34.458 34.405 34.068 34.995 33.558 35.495C33.058 35.995 32.463 36.385 31.773 36.665C31.083 36.935 30.328 37.07 29.508 37.07C28.678 37.07 27.918 36.935 27.228 36.665C26.538 36.385 25.938 35.995 25.428 35.495C24.928 34.995 24.538 34.405 24.258 33.725C23.988 33.045 23.853 32.3 23.853 31.49Z" fill="white"/>
<path d="M37.3123 26.24H43.5523V28.505H39.8473V36.74H37.3123V26.24Z" fill="white"/>
<path d="M46.5981 31.49C46.5981 32.11 46.7181 32.66 46.9581 33.14C47.2081 33.61 47.5531 33.98 47.9931 34.25C48.4431 34.52 48.9681 34.655 49.5681 34.655C50.1581 34.655 50.6731 34.52 51.1131 34.25C51.5631 33.98 51.9081 33.61 52.1481 33.14C52.3981 32.66 52.5231 32.11 52.5231 31.49C52.5231 30.87 52.4031 30.325 52.1631 29.855C51.9231 29.375 51.5831 29 51.1431 28.73C50.7031 28.46 50.1781 28.325 49.5681 28.325C48.9681 28.325 48.4431 28.46 47.9931 28.73C47.5531 29 47.2081 29.375 46.9581 29.855C46.7181 30.325 46.5981 30.87 46.5981 31.49ZM43.9131 31.49C43.9131 30.68 44.0531 29.94 44.3331 29.27C44.6231 28.6 45.0231 28.02 45.5331 27.53C46.0431 27.04 46.6431 26.665 47.3331 26.405C48.0231 26.135 48.7681 26 49.5681 26C50.3781 26 51.1231 26.135 51.8031 26.405C52.4931 26.665 53.0931 27.04 53.6031 27.53C54.1131 28.02 54.5081 28.6 54.7881 29.27C55.0681 29.94 55.2081 30.68 55.2081 31.49C55.2081 32.3 55.0681 33.045 54.7881 33.725C54.5181 34.405 54.1281 34.995 53.6181 35.495C53.1181 35.995 52.5231 36.385 51.8331 36.665C51.1431 36.935 50.3881 37.07 49.5681 37.07C48.7381 37.07 47.9781 36.935 47.2881 36.665C46.5981 36.385 45.9981 35.995 45.4881 35.495C44.9881 34.995 44.5981 34.405 44.3181 33.725C44.0481 33.045 43.9131 32.3 43.9131 31.49Z" fill="white"/>
</svg>

