<svg width="270" height="32" viewBox="0 0 270 32" fill="none" xmlns="http://www.w3.org/2000/svg">
<path fill-rule="evenodd" clip-rule="evenodd" d="M53.8805 9.8L54.5197 10.567C54.2711 10.8085 53.9835 10.9772 53.6568 11.0731C53.3301 11.169 52.9608 11.2276 52.5488 11.2489C52.1369 11.2702 51.6788 11.2915 51.1745 11.3128C50.6064 11.3341 50.1358 11.4726 49.763 11.7283C49.3901 11.984 49.1025 12.3533 48.9 12.8362C48.6976 13.3192 48.568 13.9122 48.5112 14.6153H48.6177C48.8947 14.104 49.2782 13.7276 49.7683 13.4861C50.2583 13.2446 50.7839 13.1239 51.345 13.1239C51.9842 13.1239 52.5595 13.273 53.0708 13.5713C53.5822 13.8696 53.987 14.3117 54.2853 14.8977C54.5836 15.4836 54.7328 16.2063 54.7328 17.0656C54.7328 17.9215 54.5801 18.6601 54.2747 19.2815C53.9728 19.903 53.5485 20.3824 53.0016 20.7197C52.4583 21.0536 51.8208 21.2205 51.0893 21.2205C50.3578 21.2205 49.7168 21.0482 49.1664 20.7038C48.6159 20.3558 48.188 19.8408 47.8826 19.159C47.5772 18.4737 47.4245 17.6267 47.4245 16.6182V15.7446C47.4245 13.9229 47.7335 12.5415 48.3514 11.6004C48.9728 10.6594 49.9068 10.1729 51.1532 10.1409C51.5936 10.1267 51.986 10.1232 52.3304 10.1303C52.6749 10.1374 52.975 10.1214 53.2306 10.0823C53.4863 10.0433 53.7029 9.94915 53.8805 9.8ZM51.0893 20.0912C51.5829 20.0912 52.0073 19.9669 52.3624 19.7183C52.7211 19.4697 52.9963 19.12 53.188 18.669C53.3798 18.2144 53.4757 17.68 53.4757 17.0656C53.4757 16.469 53.378 15.9612 53.1827 15.5422C52.9909 15.1232 52.7157 14.8036 52.3571 14.5834C51.9984 14.3632 51.5687 14.2531 51.068 14.2531C50.7022 14.2531 50.3738 14.3153 50.0826 14.4396C49.7914 14.5639 49.5428 14.7467 49.3368 14.9882C49.1309 15.2297 48.9711 15.5244 48.8574 15.8724C48.7473 16.2205 48.6887 16.6182 48.6816 17.0656C48.6816 17.9818 48.8965 18.7151 49.3262 19.2656C49.7559 19.816 50.3436 20.0912 51.0893 20.0912ZM58.0353 20.6931C58.5929 21.0447 59.2409 21.2205 59.9796 21.2205C60.7182 21.2205 61.3645 21.0447 61.9185 20.6931C62.476 20.3416 62.9093 19.8497 63.2182 19.2176C63.5307 18.5855 63.687 17.8469 63.687 17.0017C63.687 16.1494 63.5307 15.4055 63.2182 14.7698C62.9093 14.1342 62.476 13.6406 61.9185 13.289C61.3645 12.9374 60.7182 12.7617 59.9796 12.7617C59.2409 12.7617 58.5929 12.9374 58.0353 13.289C57.4814 13.6406 57.0481 14.1342 56.7356 14.7698C56.4267 15.4055 56.2722 16.1494 56.2722 17.0017C56.2722 17.8469 56.4267 18.5855 56.7356 19.2176C57.0481 19.8497 57.4814 20.3416 58.0353 20.6931ZM61.3645 19.6597C61.0023 19.9474 60.5407 20.0912 59.9796 20.0912C59.4185 20.0912 58.9569 19.9474 58.5946 19.6597C58.2324 19.3721 57.9643 18.9939 57.7903 18.5251C57.6163 18.0564 57.5293 17.5486 57.5293 17.0017C57.5293 16.4548 57.6163 15.9452 57.7903 15.4729C57.9643 15.0006 58.2324 14.6189 58.5946 14.3277C58.9569 14.0365 59.4185 13.8909 59.9796 13.8909C60.5407 13.8909 61.0023 14.0365 61.3645 14.3277C61.7267 14.6189 61.9949 15.0006 62.1689 15.4729C62.3429 15.9452 62.4299 16.4548 62.4299 17.0017C62.4299 17.5486 62.3429 18.0564 62.1689 18.5251C61.9949 18.9939 61.7267 19.3721 61.3645 19.6597ZM73.5893 20.9488C74.0119 21.1441 74.4824 21.2418 75.0009 21.2418C75.4767 21.2418 75.8798 21.1707 76.2101 21.0287C76.5403 20.8867 76.8049 20.7144 77.0037 20.512C77.2026 20.3096 77.3446 20.1196 77.4299 19.942H77.4938V21.05H78.7509V15.6594C78.7509 15.0095 78.6444 14.4911 78.4313 14.104C78.2182 13.7169 77.9501 13.4275 77.627 13.2357C77.3074 13.044 76.9753 12.9179 76.6309 12.8575C76.2899 12.7936 75.9881 12.7617 75.7253 12.7617C75.3134 12.7617 74.8944 12.8185 74.4682 12.9321C74.0456 13.0422 73.655 13.2375 73.2963 13.518C72.9412 13.795 72.6571 14.1821 72.4441 14.6793L73.6373 15.1054C73.7757 14.8071 74.0154 14.5266 74.3564 14.2638C74.6973 14.001 75.1678 13.8696 75.7679 13.8696C76.3468 13.8696 76.7782 14.0152 77.0623 14.3064C77.35 14.5976 77.4938 15.006 77.4938 15.5315V15.5742C77.4938 15.7766 77.421 15.9186 77.2754 16.0003C77.1333 16.082 76.9061 16.1406 76.5936 16.1761C76.2846 16.208 75.8816 16.256 75.3844 16.3199C75.0044 16.3696 74.6262 16.4371 74.2498 16.5223C73.877 16.604 73.536 16.7283 73.2271 16.8952C72.9181 17.0621 72.6713 17.2929 72.4867 17.5876C72.302 17.8788 72.2097 18.2588 72.2097 18.7276C72.2097 19.2602 72.334 19.7148 72.5826 20.0912C72.8311 20.4641 73.1667 20.7499 73.5893 20.9488ZM76.4498 19.8195C76.1088 20.0148 75.6898 20.1125 75.1926 20.1125C74.6919 20.1125 74.2782 20.0024 73.9515 19.7822C73.6284 19.5585 73.4668 19.2283 73.4668 18.7915C73.4668 18.4719 73.552 18.2197 73.7225 18.0351C73.8965 17.8469 74.1238 17.7066 74.4043 17.6143C74.6884 17.5184 74.9938 17.4492 75.3205 17.4065C75.4554 17.3888 75.6312 17.3675 75.8478 17.3426C76.068 17.3142 76.2935 17.2822 76.5243 17.2467C76.7587 17.2077 76.9647 17.1633 77.1422 17.1136C77.3233 17.0603 77.4405 17.0017 77.4938 16.9378V18.0884C77.4938 18.4293 77.405 18.7542 77.2274 19.0631C77.0534 19.3721 76.7942 19.6242 76.4498 19.8195ZM91.1554 20.6931C91.713 21.0447 92.3611 21.2205 93.0997 21.2205C93.8383 21.2205 94.4846 21.0447 95.0386 20.6931C95.5961 20.3416 96.0294 19.8497 96.3383 19.2176C96.6508 18.5855 96.8071 17.8469 96.8071 17.0017C96.8071 16.1494 96.6508 15.4055 96.3383 14.7698C96.0294 14.1342 95.5961 13.6406 95.0386 13.289C94.4846 12.9374 93.8383 12.7617 93.0997 12.7617C92.3611 12.7617 91.713 12.9374 91.1554 13.289C90.6015 13.6406 90.1682 14.1342 89.8557 14.7698C89.5468 15.4055 89.3923 16.1494 89.3923 17.0017C89.3923 17.8469 89.5468 18.5855 89.8557 19.2176C90.1682 19.8497 90.6015 20.3416 91.1554 20.6931ZM94.4846 19.6597C94.1224 19.9474 93.6608 20.0912 93.0997 20.0912C92.5386 20.0912 92.077 19.9474 91.7148 19.6597C91.3525 19.3721 91.0844 18.9939 90.9104 18.5251C90.7364 18.0564 90.6494 17.5486 90.6494 17.0017C90.6494 16.4548 90.7364 15.9452 90.9104 15.4729C91.0844 15.0006 91.3525 14.6189 91.7148 14.3277C92.077 14.0365 92.5386 13.8909 93.0997 13.8909C93.6608 13.8909 94.1224 14.0365 94.4846 14.3277C94.8469 14.6189 95.115 15.0006 95.289 15.4729C95.463 15.9452 95.55 16.4548 95.55 17.0017C95.55 17.5486 95.463 18.0564 95.289 18.5251C95.115 18.9939 94.8469 19.3721 94.4846 19.6597ZM102.945 21.05H106.801C107.355 21.05 107.831 20.9541 108.229 20.7624C108.627 20.5706 108.932 20.3096 109.145 19.9793C109.358 19.6491 109.465 19.2744 109.465 18.8554C109.465 18.4257 109.371 18.0635 109.182 17.7688C108.994 17.4705 108.756 17.2361 108.469 17.0656C108.184 16.8952 107.892 16.7886 107.59 16.746C108.051 16.6501 108.43 16.4673 108.724 16.1974C109.019 15.9239 109.166 15.5386 109.166 15.0415C109.166 14.3881 108.907 13.8625 108.389 13.4648C107.87 13.067 107.171 12.8682 106.29 12.8682H102.945V21.05ZM106.801 19.8994H104.138V17.3852H106.801C107.235 17.3852 107.574 17.5077 107.819 17.7528C108.064 17.9943 108.186 18.3263 108.186 18.7489C108.186 19.104 108.064 19.3845 107.819 19.5905C107.574 19.7965 107.235 19.8994 106.801 19.8994ZM106.29 16.2986H104.138V14.0188H106.29C106.794 14.0188 107.19 14.1182 107.478 14.317C107.765 14.5124 107.909 14.7822 107.909 15.1267C107.909 15.3682 107.844 15.5777 107.712 15.7553C107.584 15.9293 107.4 16.0642 107.158 16.1601C106.917 16.2524 106.627 16.2986 106.29 16.2986ZM86.2229 12.8682V16.3838H82.3025V12.8682H81.0454V21.05H82.3025V17.5557H86.2229V21.05H87.48V12.8682H86.2229ZM64.5366 14.0401V12.8682H71.1843V14.0401H68.4996V21.05H67.2425V14.0401H64.5366ZM40.352 20.9488C40.7746 21.1441 41.2451 21.2418 41.7636 21.2418C42.2394 21.2418 42.6425 21.1707 42.9727 21.0287C43.303 20.8867 43.5676 20.7144 43.7664 20.512C43.9653 20.3096 44.1073 20.1196 44.1926 19.942H44.2565V21.05H45.5136V15.6594C45.5136 15.0095 45.4071 14.4911 45.194 14.104C44.9809 13.7169 44.7128 13.4275 44.3896 13.2357C44.07 13.044 43.738 12.9179 43.3936 12.8575C43.0526 12.7936 42.7508 12.7617 42.488 12.7617C42.0761 12.7617 41.6571 12.8185 41.2309 12.9321C40.8083 13.0422 40.4177 13.2375 40.059 13.518C39.7039 13.795 39.4198 14.1821 39.2068 14.6793L40.3999 15.1054C40.5384 14.8071 40.7781 14.5266 41.1191 14.2638C41.46 14.001 41.9305 13.8696 42.5306 13.8696C43.1095 13.8696 43.5409 14.0152 43.825 14.3064C44.1127 14.5976 44.2565 15.006 44.2565 15.5315V15.5742C44.2565 15.7766 44.1837 15.9186 44.0381 16.0003C43.896 16.082 43.6688 16.1406 43.3563 16.1761C43.0473 16.208 42.6443 16.256 42.1471 16.3199C41.7671 16.3696 41.3889 16.4371 41.0125 16.5223C40.6397 16.604 40.2987 16.7283 39.9898 16.8952C39.6808 17.0621 39.434 17.2929 39.2494 17.5876C39.0647 17.8788 38.9724 18.2588 38.9724 18.7276C38.9724 19.2602 39.0967 19.7148 39.3453 20.0912C39.5938 20.4641 39.9294 20.7499 40.352 20.9488ZM43.2124 19.8195C42.8715 20.0148 42.4525 20.1125 41.9553 20.1125C41.4546 20.1125 41.0409 20.0024 40.7142 19.7822C40.3911 19.5585 40.2295 19.2283 40.2295 18.7915C40.2295 18.4719 40.3147 18.2197 40.4852 18.0351C40.6592 17.8469 40.8865 17.7066 41.167 17.6143C41.4511 17.5184 41.7565 17.4492 42.0832 17.4065C42.2181 17.3888 42.3939 17.3675 42.6105 17.3426C42.8307 17.3142 43.0562 17.2822 43.287 17.2467C43.5214 17.2077 43.7274 17.1633 43.9049 17.1136C44.086 17.0603 44.2032 17.0017 44.2565 16.9378V18.0884C44.2565 18.4293 44.1677 18.7542 43.9901 19.0631C43.8161 19.3721 43.5569 19.6242 43.2124 19.8195ZM30.2153 24.1182V12.8682H31.4298V14.1679H31.5789C31.6713 14.0259 31.7991 13.8447 31.9624 13.6246C32.1294 13.4009 32.3673 13.202 32.6762 13.028C32.9887 12.8504 33.4113 12.7617 33.944 12.7617C34.6329 12.7617 35.2401 12.9339 35.7657 13.2783C36.2913 13.6228 36.7014 14.1111 36.9962 14.7432C37.2909 15.3753 37.4383 16.121 37.4383 16.9804C37.4383 17.8469 37.2909 18.5979 36.9962 19.2336C36.7014 19.8657 36.2931 20.3558 35.771 20.7038C35.249 21.0482 34.6471 21.2205 33.9653 21.2205C33.4397 21.2205 33.0189 21.1335 32.7029 20.9594C32.3868 20.7819 32.1436 20.5813 31.9731 20.3575C31.8026 20.1303 31.6713 19.942 31.5789 19.7929H31.4724V24.1182H30.2153ZM31.4511 16.9591C31.4511 17.577 31.5416 18.1221 31.7227 18.5944C31.9039 19.0631 32.1684 19.4307 32.5164 19.697C32.8644 19.9598 33.2906 20.0912 33.7948 20.0912C34.3204 20.0912 34.759 19.9527 35.1105 19.6757C35.4656 19.3952 35.732 19.0188 35.9095 18.5465C36.0906 18.0706 36.1812 17.5415 36.1812 16.9591C36.1812 16.3838 36.0924 15.8653 35.9149 15.4037C35.7409 14.9385 35.4763 14.571 35.1212 14.3011C34.7696 14.0276 34.3275 13.8909 33.7948 13.8909C33.2835 13.8909 32.8538 14.0205 32.5058 14.2798C32.1578 14.5354 31.895 14.8941 31.7174 15.3558C31.5399 15.8139 31.4511 16.3483 31.4511 16.9591ZM23.6341 18.9619H22.2918C22.306 19.4094 22.4463 19.8036 22.7126 20.1445C22.9825 20.4818 23.3465 20.7464 23.8046 20.9381C24.2627 21.1264 24.7812 21.2205 25.36 21.2205C25.9566 21.2205 26.4875 21.121 26.9527 20.9222C27.4179 20.7197 27.7836 20.4357 28.05 20.0699C28.3163 19.7006 28.4495 19.2673 28.4495 18.7702C28.4495 18.4293 28.3856 18.1185 28.2577 17.838C28.1299 17.5539 27.9506 17.3249 27.7197 17.1509C27.4925 16.9733 27.2243 16.8739 26.9154 16.8526V16.7673C27.306 16.6466 27.6309 16.4442 27.8902 16.1601C28.1494 15.876 28.279 15.5031 28.279 15.0415C28.279 14.6082 28.1618 14.2212 27.9275 13.8803C27.6966 13.5358 27.3682 13.2641 26.942 13.0653C26.5194 12.8629 26.0205 12.7617 25.4452 12.7617C24.877 12.7617 24.3728 12.8593 23.9324 13.0546C23.4921 13.2464 23.1441 13.5127 22.8884 13.8536C22.6327 14.191 22.4978 14.5798 22.4836 15.0202H23.8046C23.8224 14.6828 23.991 14.4076 24.3106 14.1945C24.6302 13.9779 25.0297 13.8696 25.5091 13.8696C25.985 13.8696 26.3525 13.9815 26.6118 14.2052C26.871 14.4254 27.0006 14.7183 27.0006 15.0841C27.0006 15.425 26.8799 15.7091 26.6384 15.9364C26.4005 16.1636 26.0312 16.2773 25.5305 16.2773H24.1242V17.4065H25.5305C25.8643 17.4065 26.1537 17.4634 26.3987 17.577C26.6437 17.6906 26.8337 17.8504 26.9687 18.0564C27.1036 18.2588 27.1711 18.4967 27.1711 18.7702C27.1711 19.2354 26.9917 19.5727 26.6331 19.7822C26.2744 19.9882 25.843 20.0912 25.3387 20.0912C24.8451 20.0912 24.4438 19.9953 24.1349 19.8036C23.8295 19.6118 23.6626 19.3313 23.6341 18.9619ZM16.7587 21.2418C16.2402 21.2418 15.7697 21.1441 15.3471 20.9488C14.9245 20.7499 14.589 20.4641 14.3404 20.0912C14.0918 19.7148 13.9675 19.2602 13.9675 18.7276C13.9675 18.2588 14.0598 17.8788 14.2445 17.5876C14.4292 17.2929 14.676 17.0621 14.9849 16.8952C15.2939 16.7283 15.6348 16.604 16.0076 16.5223C16.3841 16.4371 16.7623 16.3696 17.1422 16.3199C17.6394 16.256 18.0424 16.208 18.3514 16.1761C18.6639 16.1406 18.8912 16.082 19.0332 16.0003C19.1788 15.9186 19.2516 15.7766 19.2516 15.5742V15.5315C19.2516 15.006 19.1078 14.5976 18.8201 14.3064C18.536 14.0152 18.1046 13.8696 17.5257 13.8696C16.9256 13.8696 16.4551 14.001 16.1142 14.2638C15.7733 14.5266 15.5336 14.8071 15.3951 15.1054L14.2019 14.6793C14.415 14.1821 14.699 13.795 15.0542 13.518C15.4128 13.2375 15.8034 13.0422 16.226 12.9321C16.6522 12.8185 17.0712 12.7617 17.4831 12.7617C17.7459 12.7617 18.0478 12.7936 18.3887 12.8575C18.7331 12.9179 19.0652 13.044 19.3848 13.2357C19.7079 13.4275 19.976 13.7169 20.1891 14.104C20.4022 14.4911 20.5087 15.0095 20.5087 15.6594V21.05H19.2516V19.942H19.1877C19.1024 20.1196 18.9604 20.3096 18.7615 20.512C18.5627 20.7144 18.2981 20.8867 17.9679 21.0287C17.6376 21.1707 17.2346 21.2418 16.7587 21.2418ZM16.9505 20.1125C17.4476 20.1125 17.8667 20.0148 18.2076 19.8195C18.552 19.6242 18.8113 19.3721 18.9853 19.0631C19.1628 18.7542 19.2516 18.4293 19.2516 18.0884V16.9378C19.1983 17.0017 19.0811 17.0603 18.9 17.1136C18.7225 17.1633 18.5165 17.2077 18.2821 17.2467C18.0513 17.2822 17.8258 17.3142 17.6056 17.3426C17.389 17.3675 17.2132 17.3888 17.0783 17.4065C16.7516 17.4492 16.4462 17.5184 16.1621 17.6143C15.8816 17.7066 15.6543 17.8469 15.4803 18.0351C15.3098 18.2197 15.2246 18.4719 15.2246 18.7915C15.2246 19.2283 15.3862 19.5585 15.7093 19.7822C16.036 20.0024 16.4498 20.1125 16.9505 20.1125ZM5 10.1409V21.05H6.32102V17.0656H8.70739C9.55611 17.0656 10.2521 16.9112 10.7955 16.6022C11.3388 16.2897 11.7401 15.8707 11.9993 15.3451C12.2621 14.8195 12.3935 14.2354 12.3935 13.5926C12.3935 12.9499 12.2621 12.3675 11.9993 11.8455C11.7365 11.3234 11.3317 10.9097 10.7848 10.6043C10.2415 10.2954 9.5419 10.1409 8.68608 10.1409H5ZM6.32102 15.8938V11.3128H8.64347C9.23651 11.3128 9.71236 11.4122 10.071 11.6111C10.4297 11.8064 10.6889 12.0763 10.8487 12.4207C11.0121 12.7652 11.0938 13.1558 11.0938 13.5926C11.0938 14.0294 11.0121 14.4218 10.8487 14.7698C10.6889 15.1143 10.4315 15.3877 10.0763 15.5901C9.72124 15.7925 9.25071 15.8938 8.66477 15.8938H6.32102Z" fill="#323232"/>
<path d="M266.337 12.99L264.739 20.521C264.535 21.473 264.195 22 263.039 22H259.877C258.211 22 257.208 21.252 257.208 19.841C257.208 19.603 257.242 19.348 257.293 19.076L258.585 12.99H260.013L258.772 18.821C258.721 19.093 258.687 19.331 258.687 19.552C258.687 20.351 259.078 20.844 260.149 20.844H262.716C263.056 20.844 263.26 20.725 263.362 20.266L264.909 12.99H266.337Z" fill="#323232"/>
<path d="M251.517 22L252.741 16.237C253.217 14.01 254.356 12.99 256.753 12.99H257.739L257.501 14.146H256.77C255.206 14.146 254.458 14.945 254.101 16.594L252.945 22H251.517Z" fill="#323232"/>
<path d="M250.12 22H248.573L248.964 20.164H250.511L250.12 22Z" fill="#323232"/>
<path d="M240.228 22L239.616 24.89H238.205L240.415 14.401C240.636 13.381 241.146 12.99 242.2 12.99H244.733C246.977 12.99 247.844 14.095 247.844 15.897C247.844 16.424 247.776 17.002 247.64 17.631C247.045 20.436 246.042 22 242.982 22H240.228ZM241.792 14.673L240.483 20.844H242.982C245.141 20.844 245.736 19.416 246.144 17.461C246.28 16.866 246.348 16.305 246.348 15.846C246.348 14.792 245.906 14.146 244.41 14.146H242.438C242.098 14.146 241.877 14.265 241.792 14.673Z" fill="#323232"/>
<path d="M239.044 12.99L237.446 20.521C237.242 21.473 236.902 22 235.746 22H232.584C230.918 22 229.915 21.252 229.915 19.841C229.915 19.603 229.949 19.348 230 19.076L231.292 12.99H232.72L231.479 18.821C231.428 19.093 231.394 19.331 231.394 19.552C231.394 20.351 231.785 20.844 232.856 20.844H235.423C235.763 20.844 235.967 20.725 236.069 20.266L237.616 12.99H239.044Z" fill="#323232"/>
<path d="M225.097 12.888C227.749 12.888 229.109 13.789 229.109 15.999C229.109 16.475 229.058 17.019 228.922 17.631C228.191 21.048 226.712 22.102 223.482 22.102C220.83 22.102 219.487 21.167 219.487 18.94C219.487 18.447 219.538 17.903 219.674 17.291C220.405 13.891 221.867 12.888 225.097 12.888ZM221.17 17.461C221.051 18.022 220.983 18.498 220.983 18.906C220.983 20.368 221.782 20.946 223.567 20.946C225.862 20.946 226.882 20.011 227.426 17.461C227.545 16.9 227.613 16.424 227.613 16.016C227.613 14.571 226.814 14.044 225.029 14.044C222.734 14.044 221.714 14.911 221.17 17.461Z" fill="#323232"/>
<path d="M213.881 22L215.105 16.237C215.581 14.01 216.72 12.99 219.117 12.99H220.103L219.865 14.146H219.134C217.57 14.146 216.822 14.945 216.465 16.594L215.309 22H213.881Z" fill="#323232"/>
<path d="M210.743 22H207.989C205.694 22 204.827 20.946 204.827 19.144C204.827 18.6 204.912 17.988 205.048 17.325C205.643 14.52 206.595 12.99 209.74 12.99H211.831C213.072 12.99 213.837 13.279 213.837 14.146C213.837 14.265 213.82 14.401 213.786 14.554L212.375 21.133C211.814 23.768 210.845 24.924 207.853 24.924H204.096L204.334 23.768H208.091C209.298 23.768 210.352 23.258 210.743 22ZM211.015 20.844L212.307 14.758C212.324 14.69 212.324 14.622 212.324 14.554C212.324 14.282 212.171 14.146 211.797 14.146H209.774C207.615 14.146 206.986 15.37 206.544 17.495C206.408 18.141 206.323 18.702 206.323 19.161C206.323 20.266 206.816 20.844 208.346 20.844H211.015Z" fill="#323232"/>
<path d="M196.384 12.99H201.943C203.456 12.99 204.187 13.925 204.187 15.149C204.187 15.37 204.17 15.574 204.119 15.846L203.184 20.3C202.946 21.405 202.385 22 201.11 22H196.401C195.075 22 194.344 21.133 194.344 19.79C194.344 19.501 194.378 19.11 194.429 18.77C194.718 17.053 195.653 16.373 197.268 16.373H201.365L201.45 15.982C201.467 15.863 201.484 15.778 201.484 15.676C201.484 15.166 201.144 14.894 200.532 14.894H195.976L196.384 12.99ZM200.974 18.209H198.135C197.625 18.209 197.319 18.345 197.149 18.957C197.098 19.144 197.064 19.399 197.064 19.535C197.064 19.926 197.268 20.164 197.693 20.164H199.954C200.379 20.164 200.583 19.994 200.685 19.569L200.974 18.209Z" fill="#323232"/>
<path d="M189.234 12.99H192.889C193.824 12.99 194.283 13.534 194.283 14.265C194.283 14.401 194.266 14.537 194.232 14.69L192.838 21.235C192.243 24.006 191.019 25.009 188.129 25.009H183.607L184.015 23.139H188.078C188.945 23.139 189.676 22.884 190.033 22H187.5C185.188 22 184.423 20.657 184.423 18.719C184.423 18.226 184.474 17.699 184.593 17.155C185.171 14.435 186.174 12.99 189.234 12.99ZM190.441 20.045L191.393 15.625C191.41 15.523 191.427 15.438 191.427 15.353C191.427 15.047 191.257 14.945 190.849 14.945H189.608C188.01 14.945 187.602 16.101 187.296 17.495C187.211 17.92 187.143 18.328 187.143 18.702C187.143 19.467 187.432 20.045 188.486 20.045H190.441Z" fill="#323232"/>
<path d="M182.405 22H177.305C175.129 22 174.194 21.116 174.194 19.246C174.194 18.634 174.313 17.767 174.5 16.951C175.316 13.364 176.387 12.888 179.889 12.888C182.422 12.888 184.037 13.483 184.037 15.608C184.037 15.965 183.969 16.39 183.867 16.849C183.646 17.869 183.17 18.379 182.065 18.379H176.982C176.931 18.617 176.914 18.838 176.914 19.025C176.914 19.722 177.288 20.096 178.427 20.096H182.813L182.405 22ZM177.373 16.543H180.671C181.147 16.543 181.232 16.22 181.283 15.999C181.3 15.914 181.317 15.829 181.317 15.761C181.317 15.03 180.416 14.792 179.651 14.792C178.274 14.792 177.662 15.217 177.373 16.543Z" fill="#323232"/>
<path d="M170.314 13.789L166.421 20.623C165.894 21.541 165.452 22.136 164.109 22.136C162.749 22.136 162.562 21.541 162.426 20.623L161.44 13.789C161.406 13.585 161.372 13.381 161.27 13.381C161.1 13.381 161.032 13.67 161.015 13.755L159.349 22H156.289L158.465 11.8C158.805 10.202 160.233 9.964 161.134 9.964C162.324 9.964 163.191 10.355 163.395 11.715L164.415 18.583C164.449 18.804 164.517 19.076 164.653 19.076C164.789 19.076 164.942 18.804 165.061 18.583L168.954 11.715C169.719 10.372 170.79 9.964 171.963 9.964C173.595 9.964 174.19 10.593 174.19 11.341C174.19 11.494 174.173 11.647 174.139 11.8L171.963 22H168.903L170.756 13.755C170.773 13.687 170.773 13.636 170.773 13.585C170.773 13.449 170.722 13.381 170.654 13.381C170.569 13.381 170.45 13.551 170.314 13.789Z" fill="#323232"/>
<path fill-rule="evenodd" clip-rule="evenodd" d="M131.595 0.132734C129.418 -0.447669 127.203 0.932719 126.751 3.15392L125.5 9H135.616H135.782H137.243C138.5 9 139.7 9.30821 139.828 10.8823L140.556 17.6805C140.697 19.0069 141.053 19.0521 141.774 17.6805C142.496 16.309 145.229 10.8812 145.229 10.8812C145.83 9.82634 146.593 9.26359 147.445 9.00539L147.597 8.25727C148.019 6.21245 146.777 4.19219 144.761 3.64715L131.595 0.133838V0.132734ZM122.547 23.7427L122.75 23H131.294H134.757L136.525 14.0039C136.631 13.4202 137.003 13.4025 137.099 14.0039L137.922 21.3968C138.08 22.476 138.526 23.1723 140.121 23.1723C140.192 23.1723 140.47 23.1712 140.536 23.1678C141.953 23.1094 142.452 22.4263 143.042 21.3979L146.087 15.6524L143.395 28.8461C142.94 31.0673 140.727 32.4477 138.55 31.8673L125.383 28.3529C123.367 27.8078 122.124 25.7875 122.547 23.7427ZM133.068 10H125.38L125.18 11H132.613H132.624C132.714 10.5768 132.87 10.2748 133.068 10ZM124.95 11.9969L124.76 13H132.155L132.384 11.9969H124.95ZM131.927 14H124.56L124.35 15H131.699L131.927 14ZM124.16 16L123.95 17H131.24L131.47 16H124.16ZM123.71 18H131.11L130.672 20H123.28L123.71 18Z" fill="#1CA345"/>
</svg>
